<?xml version="1.0" standalone="no"?><!DOCTYPE svg PUBLIC "-//W3C//DTD SVG 1.1//EN" "http://www.w3.org/Graphics/SVG/1.1/DTD/svg11.dtd"><svg t="1659440474370" class="icon" viewBox="0 0 1024 1024" version="1.1" xmlns="http://www.w3.org/2000/svg" p-id="2498" xmlns:xlink="http://www.w3.org/1999/xlink" width="128" height="128"><defs><style type="text/css">@font-face { font-family: feedback-iconfont; src: url("//at.alicdn.com/t/font_1031158_u69w8yhxdu.woff2?t=1630033759944") format("woff2"), url("//at.alicdn.com/t/font_1031158_u69w8yhxdu.woff?t=1630033759944") format("woff"), url("//at.alicdn.com/t/font_1031158_u69w8yhxdu.ttf?t=1630033759944") format("truetype"); }
</style></defs><path d="M669.9 960.2h-321c-37 0-68.1-28.9-70.9-65.7l-58.8-666.9v-0.9c0-30.7 25-55.7 55.7-55.7h469c30.7 0 55.7 25 55.7 55.7l-0.1 1.8-58.8 666.2c-2.7 36.7-33.9 65.5-70.8 65.5zM260.3 226L319 891.1c1.2 15.8 14.3 27.9 29.9 27.9h320.9c15.6 0 28.7-12.2 29.9-27.7L758.4 226c-0.4-7.7-6.8-13.9-14.6-13.9h-469c-7.7 0-14.1 6.2-14.5 13.9z" fill="#55422D" p-id="2499"></path><path d="M219.9 340.4l36.3 444.4c0.8 10.3 9.4 18.2 19.7 18.2h467c10.3 0 18.9-7.9 19.7-18.2l36.3-444.4c0.9-11.5-8.2-21.4-19.7-21.4H239.6c-11.6 0-20.7 9.8-19.7 21.4z" fill="#689143" p-id="2500"></path><path d="M740 176.1H285.1c-17.1 0-28.7-17.2-22.4-33.1l13.9-34.9c3.7-9.2 12.5-15.2 22.4-15.2h427.1c9.9 0 18.8 6 22.4 15.2l13.9 34.9c6.4 15.9-5.3 33.1-22.4 33.1z" fill="#55422D" p-id="2501"></path><path d="M787.6 226.7H231.2c-9.1 0-16.1-8.2-14.6-17.2l12-71.8c1.2-7.1 7.4-12.3 14.6-12.3h532.4c7.2 0 13.4 5.2 14.6 12.3l12 71.8c1.5 9-5.5 17.2-14.6 17.2zM669.6 93.8h63.9V66.7c0-1.4-1.1-2.5-2.5-2.5h-58.9c-1.4 0-2.5 1.1-2.5 2.5v27.1z" fill="#55422D" p-id="2502"></path><path d="M421.4 637.9c-6.1-0.1-11.9-3-15.5-7.9-25.8-33.9-13.3-93.2 30.4-136.9 44.2-44.2 104.3-56.5 138-29.5 2 1.6 1.5 4.8-1 5.6-8.2 2.8-24.9 11.5-47.9 39-27.8 33.3-20.2 57.7-60.1 103.7-19 22-33.7 26.1-43.9 26zM596.7 484c6.7 0 12.9 3.3 16.9 8.7 25.1 34 12.4 92.7-31 136.1-44.2 44.2-104.3 56.5-138 29.5-2-1.6-1.5-4.8 1-5.6 8.2-2.8 24.9-11.5 47.9-39 27.8-33.3 20.2-57.7 60.1-103.7 18.4-21.5 32.8-25.9 43.1-26z" fill="#FFFFFF" p-id="2503"></path></svg>